# xmcd CD database file
#
# Track frame offsets:
#        217
#        22762
#        44355
#        58980
#        70172
#        85795
#        100132
#        114852
#        136182
#        149887
#        160125
#        173295
#        186902
#        200887
#        223332
#        239690
#        248647
#
# Disc length: 3450 seconds
#
# Revision: 0
# Processed by: cddbd v1.5.2PL0 Copyright (c) Steve Scherf et al.
# Submitted via: CUERipper 2.1.5
#
DISCID=f60d7811
DTITLE=Big Bill Broonzy - Members Edition
DYEAR=1900
DGENRE=Blues
TTITLE0=Ridin' On Down
TTITLE1=Feelin' Low Down
TTITLE2=Baby Please Don't Go
TTITLE3=St. Louis Blues
TTITLE4=In The Evening
TTITLE5=All I Got Belongs To You
TTITLE6=Treat Everybody Right
TTITLE7=I Got Up One Morning Blues
TTITLE8=See See Rider
TTITLE9=Sixteen Tons
TTITLE10=Backwater Blues
TTITLE11=This Train
TTITLE12=I Don't Want No Woman
TTITLE13=Martha
TTITLE14=Tell Me Who
TTITLE15=Bill Bailey
TTITLE16=Alberta
EXTD=
EXTT0=
EXTT1=
EXTT2=
EXTT3=
EXTT4=
EXTT5=
EXTT6=
EXTT7=
EXTT8=
EXTT9=
EXTT10=
EXTT11=
EXTT12=
EXTT13=
EXTT14=
EXTT15=
EXTT16=
PLAYORDER=
